<mxfile host="app.diagrams.net" modified="2024-03-26T13:51:57.276Z" agent="Mozilla/5.0 (Windows NT 10.0; Win64; x64) AppleWebKit/537.36 (KHTML, like Gecko) Chrome/123.0.0.0 Safari/537.36" etag="Nu4crQQic-K7zPWdouK0" version="24.0.4" type="device">
  <diagram id="Ugs2vV4A1KuJ4jjXR2ai" name="database">
    <mxGraphModel dx="1878" dy="995" grid="1" gridSize="10" guides="1" tooltips="1" connect="1" arrows="1" fold="1" page="1" pageScale="1" pageWidth="1169" pageHeight="827" math="0" shadow="0">
      <root>
        <mxCell id="0" />
        <mxCell id="1" parent="0" />
        <mxCell id="J57o424mAd_ZCcqMx-QD-1" value="Teacher" style="whiteSpace=wrap;html=1;align=center;" parent="1" vertex="1">
          <mxGeometry x="540" y="724" width="100" height="40" as="geometry" />
        </mxCell>
        <mxCell id="J57o424mAd_ZCcqMx-QD-2" value="Faculty" style="whiteSpace=wrap;html=1;align=center;" parent="1" vertex="1">
          <mxGeometry x="540" y="444" width="100" height="40" as="geometry" />
        </mxCell>
        <mxCell id="J57o424mAd_ZCcqMx-QD-3" value="Schedule" style="whiteSpace=wrap;html=1;align=center;" parent="1" vertex="1">
          <mxGeometry x="1026" y="443" width="100" height="40" as="geometry" />
        </mxCell>
        <mxCell id="J57o424mAd_ZCcqMx-QD-4" value="Lesson" style="whiteSpace=wrap;html=1;align=center;" parent="1" vertex="1">
          <mxGeometry x="1513" y="442" width="100" height="40" as="geometry" />
        </mxCell>
        <mxCell id="J57o424mAd_ZCcqMx-QD-5" value="Room" style="whiteSpace=wrap;html=1;align=center;" parent="1" vertex="1">
          <mxGeometry x="1601" y="758" width="100" height="40" as="geometry" />
        </mxCell>
        <mxCell id="J57o424mAd_ZCcqMx-QD-7" value="Request" style="whiteSpace=wrap;html=1;align=center;" parent="1" vertex="1">
          <mxGeometry x="1041" y="1014" width="100" height="40" as="geometry" />
        </mxCell>
        <mxCell id="J57o424mAd_ZCcqMx-QD-9" value="Call" style="shape=rhombus;perimeter=rhombusPerimeter;whiteSpace=wrap;html=1;align=center;" parent="1" vertex="1">
          <mxGeometry x="1031" y="883" width="120" height="60" as="geometry" />
        </mxCell>
        <mxCell id="J57o424mAd_ZCcqMx-QD-13" value="" style="endArrow=none;html=1;rounded=0;exitX=1;exitY=0.5;exitDx=0;exitDy=0;entryX=0.5;entryY=0;entryDx=0;entryDy=0;" parent="1" source="J57o424mAd_ZCcqMx-QD-1" target="J57o424mAd_ZCcqMx-QD-9" edge="1">
          <mxGeometry width="50" height="50" relative="1" as="geometry">
            <mxPoint x="770" y="1054" as="sourcePoint" />
            <mxPoint x="820" y="1004" as="targetPoint" />
            <Array as="points">
              <mxPoint x="950" y="744" />
              <mxPoint x="1090" y="804" />
            </Array>
          </mxGeometry>
        </mxCell>
        <mxCell id="J57o424mAd_ZCcqMx-QD-14" value="" style="endArrow=none;html=1;rounded=0;exitX=0.5;exitY=1;exitDx=0;exitDy=0;entryX=0.5;entryY=0;entryDx=0;entryDy=0;" parent="1" source="J57o424mAd_ZCcqMx-QD-9" target="J57o424mAd_ZCcqMx-QD-7" edge="1">
          <mxGeometry width="50" height="50" relative="1" as="geometry">
            <mxPoint x="810" y="1084" as="sourcePoint" />
            <mxPoint x="930" y="1084" as="targetPoint" />
          </mxGeometry>
        </mxCell>
        <mxCell id="J57o424mAd_ZCcqMx-QD-15" value="" style="endArrow=none;html=1;rounded=0;exitX=1;exitY=0.5;exitDx=0;exitDy=0;entryX=0;entryY=0.5;entryDx=0;entryDy=0;" parent="1" source="J57o424mAd_ZCcqMx-QD-2" target="J57o424mAd_ZCcqMx-QD-16" edge="1">
          <mxGeometry width="50" height="50" relative="1" as="geometry">
            <mxPoint x="660" y="638" as="sourcePoint" />
            <mxPoint x="780" y="638" as="targetPoint" />
          </mxGeometry>
        </mxCell>
        <mxCell id="J57o424mAd_ZCcqMx-QD-16" value="contain" style="shape=rhombus;perimeter=rhombusPerimeter;whiteSpace=wrap;html=1;align=center;" parent="1" vertex="1">
          <mxGeometry x="770" y="434" width="120" height="60" as="geometry" />
        </mxCell>
        <mxCell id="J57o424mAd_ZCcqMx-QD-17" value="has" style="shape=rhombus;perimeter=rhombusPerimeter;whiteSpace=wrap;html=1;align=center;" parent="1" vertex="1">
          <mxGeometry x="1590" y="629" width="120" height="60" as="geometry" />
        </mxCell>
        <mxCell id="J57o424mAd_ZCcqMx-QD-19" value="has" style="shape=rhombus;perimeter=rhombusPerimeter;whiteSpace=wrap;html=1;align=center;" parent="1" vertex="1">
          <mxGeometry x="1250" y="433" width="120" height="60" as="geometry" />
        </mxCell>
        <mxCell id="J57o424mAd_ZCcqMx-QD-20" value="undertake" style="shape=rhombus;perimeter=rhombusPerimeter;whiteSpace=wrap;html=1;align=center;" parent="1" vertex="1">
          <mxGeometry x="1170" y="716.5" width="120" height="60" as="geometry" />
        </mxCell>
        <mxCell id="J57o424mAd_ZCcqMx-QD-21" value="" style="endArrow=none;html=1;rounded=0;exitX=0;exitY=0.5;exitDx=0;exitDy=0;entryX=1;entryY=0.5;entryDx=0;entryDy=0;" parent="1" source="J57o424mAd_ZCcqMx-QD-3" target="J57o424mAd_ZCcqMx-QD-16" edge="1">
          <mxGeometry width="50" height="50" relative="1" as="geometry">
            <mxPoint x="640" y="878" as="sourcePoint" />
            <mxPoint x="770" y="878" as="targetPoint" />
          </mxGeometry>
        </mxCell>
        <mxCell id="J57o424mAd_ZCcqMx-QD-22" value="" style="endArrow=none;html=1;rounded=0;exitX=1;exitY=0.5;exitDx=0;exitDy=0;entryX=0.5;entryY=1;entryDx=0;entryDy=0;" parent="1" source="J57o424mAd_ZCcqMx-QD-20" target="J57o424mAd_ZCcqMx-QD-4" edge="1">
          <mxGeometry width="50" height="50" relative="1" as="geometry">
            <mxPoint x="1450" y="780.25" as="sourcePoint" />
            <mxPoint x="1650" y="730.25" as="targetPoint" />
            <Array as="points">
              <mxPoint x="1410" y="747" />
            </Array>
          </mxGeometry>
        </mxCell>
        <mxCell id="J57o424mAd_ZCcqMx-QD-24" value="" style="endArrow=none;html=1;rounded=0;exitX=0;exitY=0.5;exitDx=0;exitDy=0;entryX=1;entryY=0.5;entryDx=0;entryDy=0;" parent="1" source="J57o424mAd_ZCcqMx-QD-19" target="J57o424mAd_ZCcqMx-QD-3" edge="1">
          <mxGeometry width="50" height="50" relative="1" as="geometry">
            <mxPoint x="1549" y="614" as="sourcePoint" />
            <mxPoint x="1340" y="614" as="targetPoint" />
          </mxGeometry>
        </mxCell>
        <mxCell id="J57o424mAd_ZCcqMx-QD-25" value="" style="endArrow=none;html=1;rounded=0;exitX=0.5;exitY=0;exitDx=0;exitDy=0;entryX=0.5;entryY=1;entryDx=0;entryDy=0;" parent="1" source="J57o424mAd_ZCcqMx-QD-17" target="J57o424mAd_ZCcqMx-QD-4" edge="1">
          <mxGeometry width="50" height="50" relative="1" as="geometry">
            <mxPoint x="1610" y="819.75" as="sourcePoint" />
            <mxPoint x="1620" y="969.75" as="targetPoint" />
            <Array as="points">
              <mxPoint x="1650" y="594" />
            </Array>
          </mxGeometry>
        </mxCell>
        <mxCell id="J57o424mAd_ZCcqMx-QD-27" value="" style="endArrow=none;html=1;rounded=0;entryX=1;entryY=0.5;entryDx=0;entryDy=0;exitX=0;exitY=0.5;exitDx=0;exitDy=0;" parent="1" source="J57o424mAd_ZCcqMx-QD-4" target="J57o424mAd_ZCcqMx-QD-19" edge="1">
          <mxGeometry width="50" height="50" relative="1" as="geometry">
            <mxPoint x="1530" y="878" as="sourcePoint" />
            <mxPoint x="1090" y="878" as="targetPoint" />
          </mxGeometry>
        </mxCell>
        <mxCell id="J57o424mAd_ZCcqMx-QD-28" value="" style="endArrow=none;html=1;rounded=0;entryX=0.5;entryY=1;entryDx=0;entryDy=0;exitX=0.5;exitY=0;exitDx=0;exitDy=0;" parent="1" source="J57o424mAd_ZCcqMx-QD-5" target="J57o424mAd_ZCcqMx-QD-17" edge="1">
          <mxGeometry width="50" height="50" relative="1" as="geometry">
            <mxPoint x="2140" y="775" as="sourcePoint" />
            <mxPoint x="1940" y="765" as="targetPoint" />
          </mxGeometry>
        </mxCell>
        <mxCell id="J57o424mAd_ZCcqMx-QD-29" value="(0,1)" style="text;html=1;align=center;verticalAlign=middle;whiteSpace=wrap;rounded=0;" parent="1" vertex="1">
          <mxGeometry x="1091" y="853" width="60" height="30" as="geometry" />
        </mxCell>
        <mxCell id="J57o424mAd_ZCcqMx-QD-30" value="(1,n)" style="text;html=1;align=center;verticalAlign=middle;whiteSpace=wrap;rounded=0;" parent="1" vertex="1">
          <mxGeometry x="1031" y="943" width="60" height="30" as="geometry" />
        </mxCell>
        <mxCell id="J57o424mAd_ZCcqMx-QD-31" value="(0,1)" style="text;html=1;align=center;verticalAlign=middle;whiteSpace=wrap;rounded=0;" parent="1" vertex="1">
          <mxGeometry x="710" y="434" width="60" height="30" as="geometry" />
        </mxCell>
        <mxCell id="J57o424mAd_ZCcqMx-QD-32" value="(1,n)" style="text;html=1;align=center;verticalAlign=middle;whiteSpace=wrap;rounded=0;" parent="1" vertex="1">
          <mxGeometry x="896" y="433" width="60" height="30" as="geometry" />
        </mxCell>
        <mxCell id="J57o424mAd_ZCcqMx-QD-36" value="(1,1)" style="text;html=1;align=center;verticalAlign=middle;whiteSpace=wrap;rounded=0;" parent="1" vertex="1">
          <mxGeometry x="1109" y="716.5" width="60" height="30" as="geometry" />
        </mxCell>
        <mxCell id="J57o424mAd_ZCcqMx-QD-37" value="(1,n)" style="text;html=1;align=center;verticalAlign=middle;whiteSpace=wrap;rounded=0;" parent="1" vertex="1">
          <mxGeometry x="1290" y="716.5" width="60" height="30" as="geometry" />
        </mxCell>
        <mxCell id="J57o424mAd_ZCcqMx-QD-38" value="(0,n)" style="text;html=1;align=center;verticalAlign=middle;whiteSpace=wrap;rounded=0;" parent="1" vertex="1">
          <mxGeometry x="1190" y="433" width="60" height="30" as="geometry" />
        </mxCell>
        <mxCell id="J57o424mAd_ZCcqMx-QD-39" value="(0,n)" style="text;html=1;align=center;verticalAlign=middle;whiteSpace=wrap;rounded=0;" parent="1" vertex="1">
          <mxGeometry x="1590" y="599" width="60" height="30" as="geometry" />
        </mxCell>
        <mxCell id="J57o424mAd_ZCcqMx-QD-40" value="(0,n)" style="text;html=1;align=center;verticalAlign=middle;whiteSpace=wrap;rounded=0;" parent="1" vertex="1">
          <mxGeometry x="1373" y="432" width="60" height="30" as="geometry" />
        </mxCell>
        <mxCell id="J57o424mAd_ZCcqMx-QD-41" value="(0,1)" style="text;html=1;align=center;verticalAlign=middle;whiteSpace=wrap;rounded=0;" parent="1" vertex="1">
          <mxGeometry x="1650" y="689" width="60" height="30" as="geometry" />
        </mxCell>
        <mxCell id="J57o424mAd_ZCcqMx-QD-42" value="ID" style="ellipse;whiteSpace=wrap;html=1;align=center;fontStyle=4;" parent="1" vertex="1">
          <mxGeometry x="400" y="874" width="100" height="40" as="geometry" />
        </mxCell>
        <mxCell id="J57o424mAd_ZCcqMx-QD-43" value="Email" style="ellipse;whiteSpace=wrap;html=1;align=center;" parent="1" vertex="1">
          <mxGeometry x="530" y="874" width="100" height="40" as="geometry" />
        </mxCell>
        <mxCell id="J57o424mAd_ZCcqMx-QD-44" value="Name" style="ellipse;whiteSpace=wrap;html=1;align=center;" parent="1" vertex="1">
          <mxGeometry x="680" y="874" width="100" height="40" as="geometry" />
        </mxCell>
        <mxCell id="J57o424mAd_ZCcqMx-QD-45" value="Password" style="ellipse;whiteSpace=wrap;html=1;align=center;" parent="1" vertex="1">
          <mxGeometry x="620" y="934" width="100" height="40" as="geometry" />
        </mxCell>
        <mxCell id="J57o424mAd_ZCcqMx-QD-46" value="Faculty" style="ellipse;whiteSpace=wrap;html=1;align=center;" parent="1" vertex="1">
          <mxGeometry x="450" y="934" width="100" height="40" as="geometry" />
        </mxCell>
        <mxCell id="J57o424mAd_ZCcqMx-QD-48" value="" style="endArrow=none;html=1;rounded=0;exitX=0.5;exitY=1;exitDx=0;exitDy=0;entryX=0.5;entryY=0;entryDx=0;entryDy=0;" parent="1" source="J57o424mAd_ZCcqMx-QD-1" target="J57o424mAd_ZCcqMx-QD-44" edge="1">
          <mxGeometry width="50" height="50" relative="1" as="geometry">
            <mxPoint x="480" y="1034" as="sourcePoint" />
            <mxPoint x="610" y="1034" as="targetPoint" />
          </mxGeometry>
        </mxCell>
        <mxCell id="J57o424mAd_ZCcqMx-QD-49" value="" style="endArrow=none;html=1;rounded=0;exitX=0.5;exitY=0;exitDx=0;exitDy=0;entryX=0.5;entryY=1;entryDx=0;entryDy=0;" parent="1" source="J57o424mAd_ZCcqMx-QD-43" target="J57o424mAd_ZCcqMx-QD-1" edge="1">
          <mxGeometry width="50" height="50" relative="1" as="geometry">
            <mxPoint x="430" y="1054" as="sourcePoint" />
            <mxPoint x="510" y="1094" as="targetPoint" />
          </mxGeometry>
        </mxCell>
        <mxCell id="J57o424mAd_ZCcqMx-QD-50" value="" style="endArrow=none;html=1;rounded=0;exitX=0.5;exitY=0;exitDx=0;exitDy=0;entryX=0.5;entryY=1;entryDx=0;entryDy=0;" parent="1" source="J57o424mAd_ZCcqMx-QD-46" target="J57o424mAd_ZCcqMx-QD-1" edge="1">
          <mxGeometry width="50" height="50" relative="1" as="geometry">
            <mxPoint x="440" y="1064" as="sourcePoint" />
            <mxPoint x="520" y="1104" as="targetPoint" />
          </mxGeometry>
        </mxCell>
        <mxCell id="J57o424mAd_ZCcqMx-QD-51" value="" style="endArrow=none;html=1;rounded=0;exitX=0.5;exitY=0;exitDx=0;exitDy=0;entryX=0.5;entryY=1;entryDx=0;entryDy=0;" parent="1" source="J57o424mAd_ZCcqMx-QD-42" target="J57o424mAd_ZCcqMx-QD-1" edge="1">
          <mxGeometry width="50" height="50" relative="1" as="geometry">
            <mxPoint x="450" y="1074" as="sourcePoint" />
            <mxPoint x="420" y="1044" as="targetPoint" />
          </mxGeometry>
        </mxCell>
        <mxCell id="J57o424mAd_ZCcqMx-QD-52" value="" style="endArrow=none;html=1;rounded=0;entryX=0.5;entryY=0;entryDx=0;entryDy=0;exitX=0.5;exitY=1;exitDx=0;exitDy=0;" parent="1" source="J57o424mAd_ZCcqMx-QD-1" target="J57o424mAd_ZCcqMx-QD-45" edge="1">
          <mxGeometry width="50" height="50" relative="1" as="geometry">
            <mxPoint x="420" y="1064" as="sourcePoint" />
            <mxPoint x="540" y="1124" as="targetPoint" />
          </mxGeometry>
        </mxCell>
        <mxCell id="J57o424mAd_ZCcqMx-QD-53" value="ID" style="ellipse;whiteSpace=wrap;html=1;align=center;fontStyle=4;" parent="1" vertex="1">
          <mxGeometry x="820" y="1124" width="100" height="40" as="geometry" />
        </mxCell>
        <mxCell id="J57o424mAd_ZCcqMx-QD-56" value="Description" style="ellipse;whiteSpace=wrap;html=1;align=center;" parent="1" vertex="1">
          <mxGeometry x="1230" y="1124" width="100" height="40" as="geometry" />
        </mxCell>
        <mxCell id="J57o424mAd_ZCcqMx-QD-57" value="Status" style="ellipse;whiteSpace=wrap;html=1;align=center;" parent="1" vertex="1">
          <mxGeometry x="941" y="1184" width="100" height="40" as="geometry" />
        </mxCell>
        <mxCell id="J57o424mAd_ZCcqMx-QD-58" value="Date" style="ellipse;whiteSpace=wrap;html=1;align=center;" parent="1" vertex="1">
          <mxGeometry x="1120" y="1124" width="100" height="40" as="geometry" />
        </mxCell>
        <mxCell id="J57o424mAd_ZCcqMx-QD-59" value="Time" style="ellipse;whiteSpace=wrap;html=1;align=center;" parent="1" vertex="1">
          <mxGeometry x="1060" y="1184" width="100" height="40" as="geometry" />
        </mxCell>
        <mxCell id="J57o424mAd_ZCcqMx-QD-60" value="" style="endArrow=none;html=1;rounded=0;exitX=0.5;exitY=1;exitDx=0;exitDy=0;entryX=1;entryY=0;entryDx=0;entryDy=0;" parent="1" source="J57o424mAd_ZCcqMx-QD-7" target="J57o424mAd_ZCcqMx-QD-53" edge="1">
          <mxGeometry width="50" height="50" relative="1" as="geometry">
            <mxPoint x="1350" y="1334" as="sourcePoint" />
            <mxPoint x="1430" y="1294" as="targetPoint" />
          </mxGeometry>
        </mxCell>
        <mxCell id="J57o424mAd_ZCcqMx-QD-61" value="" style="endArrow=none;html=1;rounded=0;exitX=0.5;exitY=1;exitDx=0;exitDy=0;entryX=0.5;entryY=0;entryDx=0;entryDy=0;" parent="1" source="J57o424mAd_ZCcqMx-QD-7" target="J57o424mAd_ZCcqMx-QD-59" edge="1">
          <mxGeometry width="50" height="50" relative="1" as="geometry">
            <mxPoint x="1170" y="1314" as="sourcePoint" />
            <mxPoint x="1240" y="1214" as="targetPoint" />
          </mxGeometry>
        </mxCell>
        <mxCell id="J57o424mAd_ZCcqMx-QD-62" value="" style="endArrow=none;html=1;rounded=0;exitX=0.5;exitY=1;exitDx=0;exitDy=0;entryX=1;entryY=0;entryDx=0;entryDy=0;" parent="1" source="J57o424mAd_ZCcqMx-QD-7" target="J57o424mAd_ZCcqMx-QD-57" edge="1">
          <mxGeometry width="50" height="50" relative="1" as="geometry">
            <mxPoint x="1180" y="1324" as="sourcePoint" />
            <mxPoint x="1250" y="1224" as="targetPoint" />
          </mxGeometry>
        </mxCell>
        <mxCell id="J57o424mAd_ZCcqMx-QD-63" value="" style="endArrow=none;html=1;rounded=0;exitX=0.5;exitY=1;exitDx=0;exitDy=0;entryX=0.5;entryY=0;entryDx=0;entryDy=0;" parent="1" source="J57o424mAd_ZCcqMx-QD-7" target="J57o424mAd_ZCcqMx-QD-56" edge="1">
          <mxGeometry width="50" height="50" relative="1" as="geometry">
            <mxPoint x="1190" y="1334" as="sourcePoint" />
            <mxPoint x="1260" y="1234" as="targetPoint" />
          </mxGeometry>
        </mxCell>
        <mxCell id="J57o424mAd_ZCcqMx-QD-64" value="" style="endArrow=none;html=1;rounded=0;exitX=0.5;exitY=1;exitDx=0;exitDy=0;entryX=0.5;entryY=0;entryDx=0;entryDy=0;" parent="1" source="J57o424mAd_ZCcqMx-QD-7" target="J57o424mAd_ZCcqMx-QD-58" edge="1">
          <mxGeometry width="50" height="50" relative="1" as="geometry">
            <mxPoint x="1170" y="1314" as="sourcePoint" />
            <mxPoint x="1250" y="1314" as="targetPoint" />
          </mxGeometry>
        </mxCell>
        <mxCell id="J57o424mAd_ZCcqMx-QD-65" value="ID" style="ellipse;whiteSpace=wrap;html=1;align=center;fontStyle=4;" parent="1" vertex="1">
          <mxGeometry x="450" y="360" width="100" height="40" as="geometry" />
        </mxCell>
        <mxCell id="J57o424mAd_ZCcqMx-QD-66" value="Faculty_name" style="ellipse;whiteSpace=wrap;html=1;align=center;" parent="1" vertex="1">
          <mxGeometry x="610" y="360" width="100" height="40" as="geometry" />
        </mxCell>
        <mxCell id="J57o424mAd_ZCcqMx-QD-67" value="Title" style="ellipse;whiteSpace=wrap;html=1;align=center;" parent="1" vertex="1">
          <mxGeometry x="941" y="1124" width="100" height="40" as="geometry" />
        </mxCell>
        <mxCell id="J57o424mAd_ZCcqMx-QD-68" value="" style="endArrow=none;html=1;rounded=0;exitX=0.5;exitY=1;exitDx=0;exitDy=0;entryX=0.5;entryY=0;entryDx=0;entryDy=0;" parent="1" source="J57o424mAd_ZCcqMx-QD-7" target="J57o424mAd_ZCcqMx-QD-67" edge="1">
          <mxGeometry width="50" height="50" relative="1" as="geometry">
            <mxPoint x="1170" y="1314" as="sourcePoint" />
            <mxPoint x="1170" y="1174" as="targetPoint" />
          </mxGeometry>
        </mxCell>
        <mxCell id="J57o424mAd_ZCcqMx-QD-69" value="" style="endArrow=none;html=1;rounded=0;entryX=0.5;entryY=1;entryDx=0;entryDy=0;exitX=0.5;exitY=0;exitDx=0;exitDy=0;" parent="1" source="J57o424mAd_ZCcqMx-QD-2" target="J57o424mAd_ZCcqMx-QD-65" edge="1">
          <mxGeometry width="50" height="50" relative="1" as="geometry">
            <mxPoint x="780" y="460" as="sourcePoint" />
            <mxPoint x="830" y="410" as="targetPoint" />
          </mxGeometry>
        </mxCell>
        <mxCell id="J57o424mAd_ZCcqMx-QD-70" value="" style="endArrow=none;html=1;rounded=0;entryX=0.5;entryY=1;entryDx=0;entryDy=0;exitX=0.5;exitY=0;exitDx=0;exitDy=0;" parent="1" source="J57o424mAd_ZCcqMx-QD-2" target="J57o424mAd_ZCcqMx-QD-66" edge="1">
          <mxGeometry width="50" height="50" relative="1" as="geometry">
            <mxPoint x="600" y="454" as="sourcePoint" />
            <mxPoint x="510" y="420" as="targetPoint" />
          </mxGeometry>
        </mxCell>
        <mxCell id="J57o424mAd_ZCcqMx-QD-71" value="ID" style="ellipse;whiteSpace=wrap;html=1;align=center;fontStyle=4;" parent="1" vertex="1">
          <mxGeometry x="1026" y="369" width="100" height="40" as="geometry" />
        </mxCell>
        <mxCell id="J57o424mAd_ZCcqMx-QD-72" value="Schedule_name" style="ellipse;whiteSpace=wrap;html=1;align=center;" parent="1" vertex="1">
          <mxGeometry x="906" y="519" width="105" height="40" as="geometry" />
        </mxCell>
        <mxCell id="J57o424mAd_ZCcqMx-QD-73" value="semester" style="ellipse;whiteSpace=wrap;html=1;align=center;" parent="1" vertex="1">
          <mxGeometry x="1051" y="519" width="100" height="40" as="geometry" />
        </mxCell>
        <mxCell id="J57o424mAd_ZCcqMx-QD-74" value="semester_year" style="ellipse;whiteSpace=wrap;html=1;align=center;" parent="1" vertex="1">
          <mxGeometry x="966" y="568.25" width="100" height="40" as="geometry" />
        </mxCell>
        <mxCell id="J57o424mAd_ZCcqMx-QD-76" value="" style="endArrow=none;html=1;rounded=0;entryX=0.5;entryY=1;entryDx=0;entryDy=0;exitX=0.5;exitY=0;exitDx=0;exitDy=0;" parent="1" source="J57o424mAd_ZCcqMx-QD-3" target="J57o424mAd_ZCcqMx-QD-71" edge="1">
          <mxGeometry width="50" height="50" relative="1" as="geometry">
            <mxPoint x="606" y="453" as="sourcePoint" />
            <mxPoint x="676" y="409" as="targetPoint" />
          </mxGeometry>
        </mxCell>
        <mxCell id="J57o424mAd_ZCcqMx-QD-77" value="" style="endArrow=none;html=1;rounded=0;entryX=1;entryY=0;entryDx=0;entryDy=0;exitX=0.5;exitY=1;exitDx=0;exitDy=0;" parent="1" source="J57o424mAd_ZCcqMx-QD-3" target="J57o424mAd_ZCcqMx-QD-72" edge="1">
          <mxGeometry width="50" height="50" relative="1" as="geometry">
            <mxPoint x="1086" y="453" as="sourcePoint" />
            <mxPoint x="1006" y="409" as="targetPoint" />
          </mxGeometry>
        </mxCell>
        <mxCell id="J57o424mAd_ZCcqMx-QD-78" value="" style="endArrow=none;html=1;rounded=0;entryX=0.5;entryY=0;entryDx=0;entryDy=0;exitX=0.5;exitY=1;exitDx=0;exitDy=0;" parent="1" source="J57o424mAd_ZCcqMx-QD-3" target="J57o424mAd_ZCcqMx-QD-74" edge="1">
          <mxGeometry width="50" height="50" relative="1" as="geometry">
            <mxPoint x="1086" y="453" as="sourcePoint" />
            <mxPoint x="1006" y="409" as="targetPoint" />
          </mxGeometry>
        </mxCell>
        <mxCell id="J57o424mAd_ZCcqMx-QD-79" value="" style="endArrow=none;html=1;rounded=0;entryX=0.5;entryY=0;entryDx=0;entryDy=0;exitX=0.5;exitY=1;exitDx=0;exitDy=0;" parent="1" source="J57o424mAd_ZCcqMx-QD-3" target="J57o424mAd_ZCcqMx-QD-73" edge="1">
          <mxGeometry width="50" height="50" relative="1" as="geometry">
            <mxPoint x="1096" y="463" as="sourcePoint" />
            <mxPoint x="1016" y="419" as="targetPoint" />
          </mxGeometry>
        </mxCell>
        <mxCell id="J57o424mAd_ZCcqMx-QD-81" value="ID" style="ellipse;whiteSpace=wrap;html=1;align=center;fontStyle=4;" parent="1" vertex="1">
          <mxGeometry x="1420" y="369" width="100" height="40" as="geometry" />
        </mxCell>
        <mxCell id="J57o424mAd_ZCcqMx-QD-82" value="code" style="ellipse;whiteSpace=wrap;html=1;align=center;" parent="1" vertex="1">
          <mxGeometry x="1493" y="320" width="105" height="40" as="geometry" />
        </mxCell>
        <mxCell id="J57o424mAd_ZCcqMx-QD-83" value="Lesson_name" style="ellipse;whiteSpace=wrap;html=1;align=center;" parent="1" vertex="1">
          <mxGeometry x="1613" y="320" width="105" height="40" as="geometry" />
        </mxCell>
        <mxCell id="J57o424mAd_ZCcqMx-QD-85" value="Type" style="ellipse;whiteSpace=wrap;html=1;align=center;" parent="1" vertex="1">
          <mxGeometry x="1770" y="374" width="105" height="40" as="geometry" />
        </mxCell>
        <mxCell id="J57o424mAd_ZCcqMx-QD-86" value="Time" style="ellipse;whiteSpace=wrap;html=1;align=center;" parent="1" vertex="1">
          <mxGeometry x="1770" y="422" width="105" height="40" as="geometry" />
        </mxCell>
        <mxCell id="J57o424mAd_ZCcqMx-QD-87" value="student_year" style="ellipse;whiteSpace=wrap;html=1;align=center;" parent="1" vertex="1">
          <mxGeometry x="1730" y="320" width="100" height="40" as="geometry" />
        </mxCell>
        <mxCell id="J57o424mAd_ZCcqMx-QD-88" value="" style="endArrow=none;html=1;rounded=0;exitX=1;exitY=1;exitDx=0;exitDy=0;entryX=0.5;entryY=0;entryDx=0;entryDy=0;" parent="1" source="J57o424mAd_ZCcqMx-QD-81" target="J57o424mAd_ZCcqMx-QD-4" edge="1">
          <mxGeometry width="50" height="50" relative="1" as="geometry">
            <mxPoint x="1863" y="368" as="sourcePoint" />
            <mxPoint x="1623" y="472" as="targetPoint" />
            <Array as="points" />
          </mxGeometry>
        </mxCell>
        <mxCell id="J57o424mAd_ZCcqMx-QD-89" value="" style="endArrow=none;html=1;rounded=0;exitX=0.451;exitY=1.005;exitDx=0;exitDy=0;entryX=0.5;entryY=0;entryDx=0;entryDy=0;exitPerimeter=0;" parent="1" source="J57o424mAd_ZCcqMx-QD-82" target="J57o424mAd_ZCcqMx-QD-4" edge="1">
          <mxGeometry width="50" height="50" relative="1" as="geometry">
            <mxPoint x="1483" y="368" as="sourcePoint" />
            <mxPoint x="1573" y="452" as="targetPoint" />
            <Array as="points" />
          </mxGeometry>
        </mxCell>
        <mxCell id="J57o424mAd_ZCcqMx-QD-90" value="" style="endArrow=none;html=1;rounded=0;exitX=0.5;exitY=1;exitDx=0;exitDy=0;entryX=0.5;entryY=0;entryDx=0;entryDy=0;" parent="1" source="J57o424mAd_ZCcqMx-QD-83" target="J57o424mAd_ZCcqMx-QD-4" edge="1">
          <mxGeometry width="50" height="50" relative="1" as="geometry">
            <mxPoint x="1590" y="348" as="sourcePoint" />
            <mxPoint x="1573" y="452" as="targetPoint" />
            <Array as="points" />
          </mxGeometry>
        </mxCell>
        <mxCell id="J57o424mAd_ZCcqMx-QD-92" value="" style="endArrow=none;html=1;rounded=0;exitX=0;exitY=0.5;exitDx=0;exitDy=0;entryX=1;entryY=0.5;entryDx=0;entryDy=0;" parent="1" source="J57o424mAd_ZCcqMx-QD-86" target="J57o424mAd_ZCcqMx-QD-4" edge="1">
          <mxGeometry width="50" height="50" relative="1" as="geometry">
            <mxPoint x="1471" y="548" as="sourcePoint" />
            <mxPoint x="1573" y="492" as="targetPoint" />
            <Array as="points" />
          </mxGeometry>
        </mxCell>
        <mxCell id="J57o424mAd_ZCcqMx-QD-93" value="" style="endArrow=none;html=1;rounded=0;exitX=0;exitY=0.5;exitDx=0;exitDy=0;entryX=1;entryY=0.5;entryDx=0;entryDy=0;" parent="1" source="J57o424mAd_ZCcqMx-QD-85" target="J57o424mAd_ZCcqMx-QD-4" edge="1">
          <mxGeometry width="50" height="50" relative="1" as="geometry">
            <mxPoint x="1531" y="598" as="sourcePoint" />
            <mxPoint x="1573" y="492" as="targetPoint" />
            <Array as="points" />
          </mxGeometry>
        </mxCell>
        <mxCell id="J57o424mAd_ZCcqMx-QD-94" value="" style="endArrow=none;html=1;rounded=0;exitX=0;exitY=1;exitDx=0;exitDy=0;entryX=0.5;entryY=0;entryDx=0;entryDy=0;" parent="1" source="J57o424mAd_ZCcqMx-QD-87" target="J57o424mAd_ZCcqMx-QD-4" edge="1">
          <mxGeometry width="50" height="50" relative="1" as="geometry">
            <mxPoint x="1606" y="558" as="sourcePoint" />
            <mxPoint x="1573" y="492" as="targetPoint" />
            <Array as="points" />
          </mxGeometry>
        </mxCell>
        <mxCell id="J57o424mAd_ZCcqMx-QD-99" value="ID" style="ellipse;whiteSpace=wrap;html=1;align=center;fontStyle=4;" parent="1" vertex="1">
          <mxGeometry x="1470" y="903" width="100" height="40" as="geometry" />
        </mxCell>
        <mxCell id="J57o424mAd_ZCcqMx-QD-100" value="Type" style="ellipse;whiteSpace=wrap;html=1;align=center;" parent="1" vertex="1">
          <mxGeometry x="1727.5" y="943" width="105" height="40" as="geometry" />
        </mxCell>
        <mxCell id="J57o424mAd_ZCcqMx-QD-101" value="code" style="ellipse;whiteSpace=wrap;html=1;align=center;" parent="1" vertex="1">
          <mxGeometry x="1635" y="903" width="105" height="40" as="geometry" />
        </mxCell>
        <mxCell id="J57o424mAd_ZCcqMx-QD-102" value="Room_name" style="ellipse;whiteSpace=wrap;html=1;align=center;" parent="1" vertex="1">
          <mxGeometry x="1545" y="943" width="105" height="40" as="geometry" />
        </mxCell>
        <mxCell id="J57o424mAd_ZCcqMx-QD-103" value="" style="endArrow=none;html=1;rounded=0;entryX=0.5;entryY=0;entryDx=0;entryDy=0;exitX=0.5;exitY=1;exitDx=0;exitDy=0;" parent="1" source="J57o424mAd_ZCcqMx-QD-5" target="J57o424mAd_ZCcqMx-QD-99" edge="1">
          <mxGeometry width="50" height="50" relative="1" as="geometry">
            <mxPoint x="1608" y="788" as="sourcePoint" />
            <mxPoint x="1399" y="788" as="targetPoint" />
          </mxGeometry>
        </mxCell>
        <mxCell id="J57o424mAd_ZCcqMx-QD-104" value="" style="endArrow=none;html=1;rounded=0;entryX=0.5;entryY=0;entryDx=0;entryDy=0;exitX=0.5;exitY=1;exitDx=0;exitDy=0;" parent="1" source="J57o424mAd_ZCcqMx-QD-5" target="J57o424mAd_ZCcqMx-QD-102" edge="1">
          <mxGeometry width="50" height="50" relative="1" as="geometry">
            <mxPoint x="1670" y="843" as="sourcePoint" />
            <mxPoint x="1699" y="712" as="targetPoint" />
          </mxGeometry>
        </mxCell>
        <mxCell id="J57o424mAd_ZCcqMx-QD-105" value="" style="endArrow=none;html=1;rounded=0;entryX=0.5;entryY=0;entryDx=0;entryDy=0;exitX=0.5;exitY=1;exitDx=0;exitDy=0;" parent="1" source="J57o424mAd_ZCcqMx-QD-5" target="J57o424mAd_ZCcqMx-QD-101" edge="1">
          <mxGeometry width="50" height="50" relative="1" as="geometry">
            <mxPoint x="1708" y="788" as="sourcePoint" />
            <mxPoint x="1899" y="712" as="targetPoint" />
          </mxGeometry>
        </mxCell>
        <mxCell id="J57o424mAd_ZCcqMx-QD-106" value="" style="endArrow=none;html=1;rounded=0;entryX=0.5;entryY=0;entryDx=0;entryDy=0;exitX=0.5;exitY=1;exitDx=0;exitDy=0;" parent="1" source="J57o424mAd_ZCcqMx-QD-5" target="J57o424mAd_ZCcqMx-QD-100" edge="1">
          <mxGeometry width="50" height="50" relative="1" as="geometry">
            <mxPoint x="1708" y="788" as="sourcePoint" />
            <mxPoint x="1819" y="828" as="targetPoint" />
          </mxGeometry>
        </mxCell>
        <mxCell id="J57o424mAd_ZCcqMx-QD-107" value="in" style="shape=rhombus;perimeter=rhombusPerimeter;whiteSpace=wrap;html=1;align=center;" parent="1" vertex="1">
          <mxGeometry x="530" y="574" width="120" height="60" as="geometry" />
        </mxCell>
        <mxCell id="J57o424mAd_ZCcqMx-QD-108" value="" style="endArrow=none;html=1;rounded=0;exitX=0.5;exitY=0;exitDx=0;exitDy=0;entryX=0.5;entryY=1;entryDx=0;entryDy=0;" parent="1" source="J57o424mAd_ZCcqMx-QD-1" target="J57o424mAd_ZCcqMx-QD-107" edge="1">
          <mxGeometry width="50" height="50" relative="1" as="geometry">
            <mxPoint x="730" y="1034" as="sourcePoint" />
            <mxPoint x="860" y="1034" as="targetPoint" />
          </mxGeometry>
        </mxCell>
        <mxCell id="J57o424mAd_ZCcqMx-QD-109" value="" style="endArrow=none;html=1;rounded=0;exitX=0.5;exitY=0;exitDx=0;exitDy=0;entryX=0.5;entryY=1;entryDx=0;entryDy=0;" parent="1" source="J57o424mAd_ZCcqMx-QD-107" target="J57o424mAd_ZCcqMx-QD-2" edge="1">
          <mxGeometry width="50" height="50" relative="1" as="geometry">
            <mxPoint x="460" y="974" as="sourcePoint" />
            <mxPoint x="540" y="744" as="targetPoint" />
          </mxGeometry>
        </mxCell>
        <mxCell id="J57o424mAd_ZCcqMx-QD-110" value="" style="endArrow=none;html=1;rounded=0;entryX=0;entryY=0.5;entryDx=0;entryDy=0;exitX=1;exitY=0.5;exitDx=0;exitDy=0;" parent="1" source="J57o424mAd_ZCcqMx-QD-1" target="J57o424mAd_ZCcqMx-QD-20" edge="1">
          <mxGeometry width="50" height="50" relative="1" as="geometry">
            <mxPoint x="1000" y="664" as="sourcePoint" />
            <mxPoint x="1036" y="1091" as="targetPoint" />
            <Array as="points" />
          </mxGeometry>
        </mxCell>
        <mxCell id="J57o424mAd_ZCcqMx-QD-111" value="(0,1)" style="text;html=1;align=center;verticalAlign=middle;whiteSpace=wrap;rounded=0;" parent="1" vertex="1">
          <mxGeometry x="590" y="544" width="60" height="30" as="geometry" />
        </mxCell>
        <mxCell id="J57o424mAd_ZCcqMx-QD-112" value="(1,n)" style="text;html=1;align=center;verticalAlign=middle;whiteSpace=wrap;rounded=0;" parent="1" vertex="1">
          <mxGeometry x="530" y="634" width="60" height="30" as="geometry" />
        </mxCell>
        <mxCell id="9gqH7Kb756aKsZUOM_s8-2" value="Location" style="ellipse;whiteSpace=wrap;html=1;align=center;" parent="1" vertex="1">
          <mxGeometry x="1830" y="893" width="105" height="40" as="geometry" />
        </mxCell>
        <mxCell id="9gqH7Kb756aKsZUOM_s8-3" value="" style="endArrow=none;html=1;rounded=0;exitX=0.5;exitY=1;exitDx=0;exitDy=0;entryX=0.5;entryY=0;entryDx=0;entryDy=0;" parent="1" source="J57o424mAd_ZCcqMx-QD-5" target="9gqH7Kb756aKsZUOM_s8-2" edge="1">
          <mxGeometry width="50" height="50" relative="1" as="geometry">
            <mxPoint x="1661" y="808" as="sourcePoint" />
            <mxPoint x="1890" y="890" as="targetPoint" />
          </mxGeometry>
        </mxCell>
      </root>
    </mxGraphModel>
  </diagram>
</mxfile>
